<svg xmlns="http://www.w3.org/2000/svg" viewBox="0 0 750 500"><g id="freepik--background-simple--inject-329"><path d="M265.51,99.3c-40.51,3.78-79.57,11.82-114.22,24.44-40.83,14.87-82.55,38-70.23,68.35,22.75,55.95,131.89,57,110.1,94.59-24.69,42.62-8.13,92.6,102.62,106.5,210.37,26.4,464.67-128.08,393.25-213C642.56,127.37,480.61,79.23,265.51,99.3Z" style="fill:#3C93ED"></path><path d="M265.51,99.3c-40.51,3.78-79.57,11.82-114.22,24.44-40.83,14.87-82.55,38-70.23,68.35,22.75,55.95,131.89,57,110.1,94.59-24.69,42.62-8.13,92.6,102.62,106.5,210.37,26.4,464.67-128.08,393.25-213C642.56,127.37,480.61,79.23,265.51,99.3Z" style="fill:#fff;opacity:0.9"></path></g><g id="freepik--Shadow--inject-329"><path d="M674.27,462.89c0,3.38-135.59,6.13-302.84,6.13S68.6,466.27,68.6,462.89s135.58-6.14,302.83-6.14S674.27,459.5,674.27,462.89Z" style="fill:#f5f5f5"></path></g><g id="freepik--Trees--inject-329"><path d="M92.67,266.87c57.18,52.19,54.41,172.08,53.45,193.21l-20.83.1c0-.08,0-.44,0-.52C127,437.88,133.73,323.82,92.67,266.87Z" style="fill:#cd877b"></path><path d="M126.27,441.81c0,1.14-.09,2.26-.15,3.34a118.11,118.11,0,0,1,20.34.56v-3.33A117.41,117.41,0,0,0,126.27,441.81Z" style="isolation:isolate;opacity:0.2"></path><path d="M126.69,424.28c0,1.12,0,2.23,0,3.33a114.87,114.87,0,0,1,19.54.11c0-1.09-.08-2.2-.13-3.33A113.9,113.9,0,0,0,126.69,424.28Z" style="isolation:isolate;opacity:0.2"></path><path d="M126.56,406.6c0,1.11.07,2.23.07,3.34a110.66,110.66,0,0,1,18.56-.41c-.07-1.1-.17-2.21-.26-3.33A111.59,111.59,0,0,0,126.56,406.6Z" style="isolation:isolate;opacity:0.2"></path><path d="M125.85,388.85c.06,1.1.13,2.22.18,3.33a106.54,106.54,0,0,1,17.4-1c-.13-1.12-.27-2.22-.41-3.33A106,106,0,0,0,125.85,388.85Z" style="isolation:isolate;opacity:0.2"></path><path d="M140.22,369.48A106.47,106.47,0,0,0,124.48,371l.31,3.33a104.84,104.84,0,0,1,16-1.56Q140.52,371.13,140.22,369.48Z" style="isolation:isolate;opacity:0.2"></path><path d="M136.4,351.17a107.38,107.38,0,0,0-14,2.07c.15,1.13.31,2.23.45,3.33a107,107,0,0,1,14.35-2.12C136.92,353.37,136.66,352.28,136.4,351.17Z" style="isolation:isolate;opacity:0.2"></path><path d="M131.4,333.19a114.49,114.49,0,0,0-12,2.51c.24,1.09.44,2.19.65,3.29a113.86,113.86,0,0,1,12.38-2.59C132.09,335.33,131.75,334.26,131.4,333.19Z" style="isolation:isolate;opacity:0.2"></path><path d="M125.12,315.78c-3.25.76-6.54,1.7-9.68,2.72.28,1.08.56,2.16.83,3.24,3.29-1.08,6.74-2.05,10.11-2.84Z" style="isolation:isolate;opacity:0.2"></path><path d="M110.33,301.92c.37,1,.73,2.1,1.08,3.16,2.41-1,4.92-1.9,7.52-2.75-.52-1-1.05-2-1.59-3C114.94,300.14,112.58,301,110.33,301.92Z" style="isolation:isolate;opacity:0.2"></path><path d="M88.66,305.28c-4.4-13.86-3-29.39,4-38.39,9.5,10,24.67,38.57,13.14,61.79a37,37,0,0,1-9.38-8.53A18.94,18.94,0,0,0,100,319a25.66,25.66,0,0,1-5.5-1.46,47.6,47.6,0,0,1-5.29-10.67,19,19,0,0,0,2.86-1.42A17.76,17.76,0,0,1,88.66,305.28Z" style="fill:#3C93ED"></path><path d="M49,332c21.55-20.58,35.11-44.69,43.65-65.1C67.48,261.49,44.2,293.34,49,332Z" style="fill:#3C93ED"></path><path d="M38.77,273.69c-3.54.23-7.2.42-11,.6,21.47-24.57,55.55-31.12,64.86-7.45-12.63,3.08-29.24,5.25-50.55,6.67a44.37,44.37,0,0,1,1.57-6.63A22.36,22.36,0,0,0,38.77,273.69Z" style="fill:#3C93ED"></path><path d="M127.93,277a26.61,26.61,0,0,1-3.65,10.35c3.66-.6,6.33-3.75,8-6.48,7.1,7,12.3,16,13.6,26.18-27.2,1.44-47.86-26.26-53.26-40.16C103.25,264.06,117,268.28,127.93,277Z" style="fill:#3C93ED"></path><path d="M159.89,260.76c-24.61,8-48.4,8.21-67.26,6.11C99.47,244.86,133.2,240.37,159.89,260.76Z" style="fill:#3C93ED"></path><path d="M118.38,231.34q2.31-3.65,4.72-7.57c-25,5.59-42.78,27.2-30.47,43.1,7-7.78,15-18.7,24.31-33.27a31.91,31.91,0,0,0-5.09-1.48A16.84,16.84,0,0,1,118.38,231.34Z" style="fill:#3C93ED"></path><g style="opacity:0.30000000000000004"><path d="M78.58,294.56c2.86-9.36,4.24-13.76,11.37-23.73-.44.44-2.41,6.21-2.74,8,.07.09-5.11,10-6.22,11.73S78.58,294.56,78.58,294.56Z"></path></g><path d="M72.3,270.57s11.43-6.22,19-3.92c0,0-2.93-2.22-9.51-1.18C77.54,266.14,72.3,270.57,72.3,270.57Z" style="opacity:0.30000000000000004"></path><g style="opacity:0.30000000000000004"><path d="M99.27,255.72c1.48-2,3.26-4.24,5.68-4.35l-.93,1.28a28.21,28.21,0,0,0-7.93,9.81A21,21,0,0,1,99.27,255.72Z"></path></g><g style="opacity:0.30000000000000004"><path d="M121.49,267.88l-10.11.12a54.5,54.5,0,0,1-6.73-2C109.32,263.86,121.49,267.88,121.49,267.88Z"></path></g><path d="M104.5,285.83l-8-11.1s5.27,11.16,9.32,14.53Z" style="opacity:0.30000000000000004"></path><path d="M650,259.88a28.7,28.7,0,0,0-4.57,1.29c8.37,12.76,15.54,22.32,21.83,29.14,11.06-13.92-4.91-32.85-27.36-37.75,1.44,2.29,2.86,4.5,4.24,6.63A15.31,15.31,0,0,1,650,259.88Z" style="fill:#3C93ED"></path><path d="M650,259.88a28.7,28.7,0,0,0-4.57,1.29c8.37,12.76,15.54,22.32,21.83,29.14,11.06-13.92-4.91-32.85-27.36-37.75,1.44,2.29,2.86,4.5,4.24,6.63A15.31,15.31,0,0,1,650,259.88Z" style="fill:#fff;opacity:0.30000000000000004"></path><path d="M711.26,290.32a37.59,37.59,0,0,1,1.42,5.81c-19.15-1.25-34.07-3.15-45.42-5.84,8.37-20.74,39-15,58.27,6.52-3.41-.16-6.7-.33-9.88-.53A19.65,19.65,0,0,0,711.26,290.32Z" style="fill:#3C93ED"></path><path d="M711.26,290.32a37.59,37.59,0,0,1,1.42,5.81c-19.15-1.25-34.07-3.15-45.42-5.84,8.37-20.74,39-15,58.27,6.52-3.41-.16-6.7-.33-9.88-.53A19.65,19.65,0,0,0,711.26,290.32Z" style="fill:#fff;opacity:0.30000000000000004"></path><path d="M667.23,290.31C615.87,336,618.36,441,619.22,459.53l18.73-.16c0-.07,0-.14,0-.21C636.4,440.09,630.35,340.19,667.23,290.31Z" style="fill:#9f5b53"></path><path d="M618.91,444V447a108.28,108.28,0,0,1,18.27-.5c0-.94-.09-1.93-.13-2.92A107.76,107.76,0,0,0,618.91,444Z" style="isolation:isolate;opacity:0.2"></path><path d="M619.27,428.27c0,1-.08,2-.11,2.92a106,106,0,0,1,17.55-.1c0-1,0-1.94,0-2.92A106.41,106.41,0,0,0,619.27,428.27Z" style="isolation:isolate;opacity:0.2"></path><path d="M620.28,412.34c-.08,1-.16,2-.23,2.92a102,102,0,0,1,16.67.35c0-1,0-1.95.07-2.92A102.28,102.28,0,0,0,620.28,412.34Z" style="isolation:isolate;opacity:0.2"></path><path d="M622,396.28c-.12,1-.25,1.94-.36,2.92a98.45,98.45,0,0,1,15.63.86c0-1,.1-2,.16-2.92A99.47,99.47,0,0,0,622,396.28Z" style="isolation:isolate;opacity:0.2"></path><path d="M624,383.07a96.28,96.28,0,0,1,14.38,1.37l.28-2.92a97.22,97.22,0,0,0-14.14-1.34C624.34,381.14,624.17,382.11,624,383.07Z" style="isolation:isolate;opacity:0.2"></path><path d="M627.26,367a100.05,100.05,0,0,1,12.89,1.86c.12-1,.26-1.93.41-2.92A99.46,99.46,0,0,0,628,364.14C627.71,365.11,627.48,366.06,627.26,367Z" style="isolation:isolate;opacity:0.2"></path><path d="M631.53,351.21a105.48,105.48,0,0,1,11.13,2.26c.18-1,.37-1.92.58-2.88a104.85,104.85,0,0,0-10.8-2.19C632.12,349.33,631.82,350.27,631.53,351.21Z" style="isolation:isolate;opacity:0.2"></path><path d="M637,335.88c3,.69,6.13,1.54,9.08,2.49.24-.95.49-1.9.75-2.84-2.83-.9-5.78-1.72-8.7-2.38C637.7,334.05,637.33,335,637,335.88Z" style="isolation:isolate;opacity:0.2"></path><path d="M645.07,318.75c-.49.87-1,1.75-1.43,2.62,2.34.74,4.6,1.55,6.76,2.4.31-.93.64-1.85,1-2.76C649.34,320.21,647.22,319.45,645.07,318.75Z" style="isolation:isolate;opacity:0.2"></path><path d="M667.77,324.14a17.75,17.75,0,0,0,2.56,1.24,41.78,41.78,0,0,1-4.75,9.35,23.53,23.53,0,0,1-5,1.27,17.47,17.47,0,0,0,3.26,1,32.68,32.68,0,0,1-8.43,7.47c-10.36-20.33,3.28-45.36,11.8-54.11,6.27,7.88,7.53,21.48,3.57,33.62A17.41,17.41,0,0,1,667.77,324.14Z" style="fill:#3C93ED"></path><path d="M667.77,324.14a17.75,17.75,0,0,0,2.56,1.24,41.78,41.78,0,0,1-4.75,9.35,23.53,23.53,0,0,1-5,1.27,17.47,17.47,0,0,0,3.26,1,32.68,32.68,0,0,1-8.43,7.47c-10.36-20.33,3.28-45.36,11.8-54.11,6.27,7.88,7.53,21.48,3.57,33.62A17.41,17.41,0,0,1,667.77,324.14Z" style="fill:#fff;opacity:0.30000000000000004"></path><path d="M667.26,290.31C650.33,292.15,629,292,606.85,285,630.82,267.1,661.12,271,667.26,290.31Z" style="fill:#3C93ED"></path><path d="M667.26,290.31C650.33,292.15,629,292,606.85,285,630.82,267.1,661.12,271,667.26,290.31Z" style="fill:#fff;opacity:0.30000000000000004"></path><g style="opacity:0.30000000000000004"><path d="M679.89,314.56c-2.57-8.2-3.81-12.05-10.22-20.79a37.5,37.5,0,0,1,2.47,7c-.06.08,4.59,8.72,5.58,10.28S679.89,314.56,679.89,314.56Z"></path></g><path d="M667.26,290.31c7.68,17.87,19.86,39,39.22,57C710.77,313.5,689.86,285.6,667.26,290.31Z" style="fill:#3C93ED"></path><path d="M667.26,290.31c7.68,17.87,19.86,39,39.22,57C710.77,313.5,689.86,285.6,667.26,290.31Z" style="fill:#fff;opacity:0.30000000000000004"></path><path d="M685.53,293.55s-10.27-5.45-17.1-3.43c0,0,2.64-1.95,8.55-1C680.83,289.67,685.53,293.55,685.53,293.55Z" style="opacity:0.30000000000000004"></path><g style="opacity:0.30000000000000004"><path d="M661.3,280.55c-1.32-1.73-2.92-3.72-5.1-3.81l.83,1.11a25,25,0,0,1,7.13,8.59A18.12,18.12,0,0,0,661.3,280.55Z"></path></g><g style="opacity:0.30000000000000004"><path d="M641.35,291.19l9.07.11a51.59,51.59,0,0,0,6.05-1.75C652.28,287.67,641.35,291.19,641.35,291.19Z"></path></g><path d="M656.61,306.92l7.14-9.73S659,307,655.38,309.92Z" style="opacity:0.30000000000000004"></path><path d="M667.26,290.3c-4.84,12.17-23.41,36.44-47.84,35.17,1.17-8.91,5.84-16.82,12.22-22.93,1.51,2.4,3.91,5.15,7.2,5.68a22.7,22.7,0,0,1-3.28-9.06C645.37,291.54,657.73,287.85,667.26,290.3Z" style="fill:#3C93ED"></path><path d="M667.26,290.3c-4.84,12.17-23.41,36.44-47.84,35.17,1.17-8.91,5.84-16.82,12.22-22.93,1.51,2.4,3.91,5.15,7.2,5.68a22.7,22.7,0,0,1-3.28-9.06C645.37,291.54,657.73,287.85,667.26,290.3Z" style="fill:#fff;opacity:0.30000000000000004"></path></g><g id="freepik--Birds--inject-329"><path d="M170.13,102.08s.55-7.85,2-9.08,10.43-4.2,10.43-4.2-3.55,12.1-5.71,13.5S170.13,102.08,170.13,102.08Z" style="fill:#3C93ED"></path><path d="M182.58,88.8h0c-.12.37-3.59,12.13-5.71,13.5a6.74,6.74,0,0,1-4.42.37,17.15,17.15,0,0,1-2.32-.59s.56-7.87,2-9.08,9.6-3.94,10.38-4.19h.05Z" style="fill:#fff;opacity:0.6000000000000001"></path><path d="M165.56,97.36c2,0,6.66,2.8,8.19,2.94s9.11-6.44,10.73-7.53,15.93-3.51,15.93-3.51-9.49,12.23-15.93,12.59c0,0,4.77,1.67,6.16,1.22,4.41-1.14,5.26-1.6,9.77-1.55L195.23,105l7.75,1.2a31.49,31.49,0,0,1-10.86.51,45.21,45.21,0,0,1-8.51,3,11.4,11.4,0,0,1-11.61-3c-2.78-2.84-12-6-12-6l3.13-1.4A2.77,2.77,0,0,1,165.56,97.36Z" style="fill:#3C93ED"></path><path d="M165.56,97.36c2,0,6.66,2.8,8.19,2.94s9.11-6.44,10.73-7.53,15.93-3.51,15.93-3.51-9.49,12.23-15.93,12.59c0,0,4.77,1.67,6.16,1.22,4.41-1.14,5.26-1.6,9.77-1.55L195.23,105l7.75,1.2a31.49,31.49,0,0,1-10.86.51,45.21,45.21,0,0,1-8.51,3,11.4,11.4,0,0,1-11.61-3c-2.78-2.84-12-6-12-6l3.13-1.4A2.77,2.77,0,0,1,165.56,97.36Z" style="fill:#fff;opacity:0.8"></path><polygon points="163.11 99.32 164 100.13 163.47 102.08 160.04 100.67 163.11 99.32" style="fill:#263238"></polygon><path d="M167,100.18a.77.77,0,1,1-.75-.94A.86.86,0,0,1,167,100.18Z" style="fill:#263238"></path><path d="M116.93,145.39c1.47-1.24,7.56,7.52,10.44,8.62a7.72,7.72,0,0,1-6.33.11C117.87,152.63,115.37,146.68,116.93,145.39Z" style="fill:#3C93ED"></path><path d="M127.37,154a7.84,7.84,0,0,1-6.33.13c-3.17-1.49-5.67-7.46-4.11-8.75.34-.31.95,0,1.72.55C121.11,147.87,125.18,153.17,127.37,154Z" style="fill:#fff;opacity:0.6000000000000001"></path><path d="M112.13,143.7c1.49-.45,5.21.93,6.35.77s8.07-.79,8.07-.79c1.91-.29,3.28-.37,4.82-.73a36.21,36.21,0,0,1,9.52-3.24l-6.09,4.45,5.79-.44a23.49,23.49,0,0,1-7.94,2.44,39.44,39.44,0,0,1-5.93,3.88,7.84,7.84,0,0,1-8.87-.18c-2.36-1.69-9.47-2.5-9.47-2.5l2.15-1.67A2.42,2.42,0,0,1,112.13,143.7Z" style="fill:#3C93ED"></path><path d="M112.13,143.7c1.49-.45,5.21.93,6.35.77s8.07-.79,8.07-.79c1.91-.29,3.28-.37,4.82-.73a36.21,36.21,0,0,1,9.52-3.24l-6.09,4.45,5.79-.44a23.49,23.49,0,0,1-7.94,2.44,39.44,39.44,0,0,1-5.93,3.88,7.84,7.84,0,0,1-8.87-.18c-2.36-1.69-9.47-2.5-9.47-2.5l2.15-1.67A2.42,2.42,0,0,1,112.13,143.7Z" style="fill:#fff;opacity:0.8"></path><polygon points="110.49 145.69 111.23 146.14 111.05 147.76 108.34 147.36 110.49 145.69" style="fill:#263238"></polygon><path d="M132.42,146.39a42.24,42.24,0,0,1-4.47,3c-.37.23-.76.45-1.17.68-1.44.83-1.7,1.16-3.27,1.16a9.87,9.87,0,0,1-3.35-3.84,4.63,4.63,0,0,1,2.58-2.71C124.14,144,129.13,145.35,132.42,146.39Z" style="isolation:isolate;opacity:0.30000000000000004"></path><path d="M120.16,144.54c2.69-1.9,18.2,6.38,24.57,6.76a27.85,27.85,0,0,1-13.21,2.1C124.36,152.66,117.3,146.54,120.16,144.54Z" style="fill:#3C93ED"></path><ellipse cx="112.52" cy="145.9" rx="0.59" ry="0.74" style="fill:#263238"></ellipse><path d="M120.16,144.54c2.69-1.9,18.2,6.38,24.57,6.76a27.85,27.85,0,0,1-13.21,2.1C124.36,152.66,117.3,146.54,120.16,144.54Z" style="fill:#fff;opacity:0.8"></path></g><g id="freepik--Sun--inject-329"><g id="freepik--freepik--Sun--inject-5--inject-329"><path d="M617.91,89.27c0,3.23-4.66,5.79-5.46,8.76s1.91,7.62.36,10.31-6.9,2.63-9.12,4.84-2.11,7.54-4.83,9.11-7.24-1.17-10.31-.36-5.55,5.47-8.76,5.47-5.79-4.67-8.76-5.47-7.62,1.92-10.31.36-2.62-6.9-4.84-9.11-7.53-2.11-9.11-4.84,1.17-7.27.35-10.33-5.46-5.53-5.46-8.76,4.67-5.78,5.46-8.75-1.91-7.62-.35-10.31,6.9-2.63,9.11-4.85,2.11-7.53,4.84-9.11,7.24,1.18,10.31.35,5.54-5.45,8.76-5.45,5.78,4.67,8.76,5.45,7.61-1.9,10.3-.35,2.63,6.9,4.84,9.11,7.54,2.12,9.12,4.85-1.17,7.24-.36,10.31S617.91,86.05,617.91,89.27Z" style="fill:#3C93ED"></path><g style="isolation:isolate;opacity:0.8"><path d="M617.91,89.27c0,3.23-4.66,5.79-5.46,8.76s1.91,7.62.36,10.31-6.9,2.63-9.12,4.84-2.11,7.54-4.83,9.11-7.24-1.17-10.31-.36-5.55,5.47-8.76,5.47-5.79-4.67-8.76-5.47-7.62,1.92-10.31.36-2.62-6.9-4.84-9.11-7.53-2.11-9.11-4.84,1.17-7.27.35-10.33-5.46-5.53-5.46-8.76,4.67-5.78,5.46-8.75-1.91-7.62-.35-10.31,6.9-2.63,9.11-4.85,2.11-7.53,4.84-9.11,7.24,1.18,10.31.35,5.54-5.45,8.76-5.45,5.78,4.67,8.76,5.45,7.61-1.9,10.3-.35,2.63,6.9,4.84,9.11,7.54,2.12,9.12,4.85-1.17,7.24-.36,10.31S617.91,86.05,617.91,89.27Z" style="fill:#fff"></path></g><circle cx="579.79" cy="89.27" r="27.24" transform="translate(292.91 600.95) rotate(-69.48)" style="fill:#3C93ED"></circle><circle cx="579.79" cy="89.27" r="27.24" transform="translate(292.91 600.95) rotate(-69.48)" style="fill:#fff;isolation:isolate;opacity:0.5"></circle></g></g><g id="freepik--House--inject-329"><rect x="447.53" y="333.6" width="152.99" height="128.46" style="fill:#3C93ED"></rect><polygon points="491.71 72.9 392.54 72.9 389.1 72.9 289.93 72.9 254.75 161.76 389.1 161.76 392.54 161.76 526.9 161.76 491.71 72.9" style="fill:#3C93ED"></polygon><polygon points="491.71 72.9 392.54 72.9 389.1 72.9 289.93 72.9 254.75 161.76 389.1 161.76 392.54 161.76 526.9 161.76 491.71 72.9" style="opacity:0.4"></polygon><path d="M281.3,92.4c69.37-.3,147.19-.3,216.56,0-69.37.31-147.19.31-216.56,0Z" style="fill:#263238"></path><path d="M275.12,109.06c74-.31,157-.31,231,0-74,.31-157,.3-231,0Z" style="fill:#263238"></path><path d="M267.25,125.7c77.86-.26,167.67-.34,245.37,0-77.65.33-167.57.26-245.37,0Z" style="fill:#263238"></path><path d="M261.34,144.8c81.1-.29,177.75-.29,258.84,0-81.1.29-177.74.29-258.84,0Z" style="fill:#263238"></path><circle cx="391.26" cy="130.71" r="16.57" transform="translate(201.93 497.21) rotate(-81.15)" style="fill:#263238"></circle><polygon points="393.11 71.85 288.16 161.76 492.15 161.76 393.11 71.85" style="fill:#3C93ED"></polygon><polygon points="289.51 163.34 286.81 160.18 393.15 69.08 493.55 160.22 490.75 163.3 393.07 74.63 289.51 163.34" style="fill:#fff"></polygon><g style="opacity:0.2"><path d="M374.06,144.09a19.11,19.11,0,0,0,36-4.45c-1.46,5.08-6.25,8.56-11.21,10.38a22.82,22.82,0,0,1-12.7,1.18,14.64,14.64,0,0,1-10-7.47"></path></g><circle cx="391.26" cy="130.71" r="21.31" transform="translate(22.17 314.95) rotate(-45)" style="fill:#fff"></circle><circle cx="391.26" cy="130.71" r="16.57" transform="translate(201.93 497.21) rotate(-81.15)" style="fill:#3C93ED"></circle><circle cx="391.26" cy="130.71" r="16.57" transform="translate(201.93 497.21) rotate(-81.15)" style="fill:#fff;opacity:0.6000000000000001"></circle><path d="M377,130.71a16.56,16.56,0,0,1,15.39-16.52c-.38,0-.78,0-1.17,0a16.57,16.57,0,1,0,0,33.14c.39,0,.79,0,1.17-.05A16.56,16.56,0,0,1,377,130.71Z" style="opacity:0.4"></path><rect x="389.7" y="112.73" width="3.12" height="35.95" style="fill:#fff"></rect><polygon points="295.23 158.99 393.06 74.63 418.14 97.5 393.5 80.08 305.33 158.99 295.23 158.99" style="opacity:0.2"></polygon><rect x="190.16" y="224.08" width="408.79" height="127.3" style="fill:#3C93ED"></rect><rect x="198.9" y="198.61" width="401.62" height="130.27" style="fill:#3C93ED"></rect><rect x="210.24" y="238.08" width="54.73" height="42.65" style="fill:#fff"></rect><rect x="212.87" y="240.32" width="49.6" height="37.82" style="fill:#3C93ED"></rect><rect x="212.87" y="240.32" width="49.6" height="37.82" style="fill:#fff;opacity:0.4"></rect><polygon points="262.47 245.06 212.88 263.9 212.88 272.46 262.47 253.37 262.47 245.06" style="fill:#fff;opacity:0.4"></polygon><polygon points="262.47 255.8 212.88 274.64 212.88 278.14 262.47 259.23 262.47 255.8" style="fill:#fff;opacity:0.4"></polygon><rect x="236.43" y="239.73" width="2.5" height="39.02" style="fill:#fff"></rect><rect x="235.45" y="224.09" width="2.61" height="53.04" transform="translate(-13.86 487.37) rotate(-90)" style="fill:#fff"></rect><polygon points="210.24 238.08 212.88 240.32 262.47 240.32 264.96 238.08 210.24 238.08" style="opacity:0.30000000000000004"></polygon><rect x="269.49" y="238.08" width="54.73" height="42.65" style="fill:#fff"></rect><rect x="272.13" y="240.32" width="49.6" height="37.82" style="fill:#3C93ED"></rect><rect x="272.13" y="240.32" width="49.6" height="37.82" style="fill:#fff;opacity:0.4"></rect><polygon points="321.72 245.06 272.13 263.9 272.13 272.46 321.72 253.37 321.72 245.06" style="fill:#fff;opacity:0.4"></polygon><polygon points="321.72 255.8 272.13 274.64 272.13 278.14 321.72 259.23 321.72 255.8" style="fill:#fff;opacity:0.4"></polygon><rect x="295.68" y="239.73" width="2.5" height="39.02" style="fill:#fff"></rect><rect x="294.71" y="224.09" width="2.61" height="53.04" transform="translate(45.4 546.63) rotate(-90)" style="fill:#fff"></rect><polygon points="269.49 238.08 272.13 240.32 321.72 240.32 324.21 238.08 269.49 238.08" style="opacity:0.30000000000000004"></polygon><rect x="190.16" y="223.77" width="12.34" height="105.01" style="fill:#3C93ED"></rect><rect x="334.69" y="223.77" width="6.75" height="105.01" style="fill:#3C93ED"></rect><rect x="196.33" y="287.77" width="139.12" height="7.14" style="fill:#3C93ED"></rect><rect x="210.11" y="294.91" width="3.65" height="33.87" style="fill:#3C93ED"></rect><rect x="222.31" y="294.91" width="3.65" height="33.87" style="fill:#3C93ED"></rect><rect x="234.52" y="294.91" width="3.65" height="33.87" style="fill:#3C93ED"></rect><rect x="246.72" y="294.91" width="3.65" height="33.87" style="fill:#3C93ED"></rect><rect x="258.93" y="294.91" width="3.65" height="33.87" style="fill:#3C93ED"></rect><rect x="271.13" y="294.91" width="3.65" height="33.87" style="fill:#3C93ED"></rect><rect x="283.34" y="294.91" width="3.65" height="33.87" style="fill:#3C93ED"></rect><rect x="295.54" y="294.91" width="3.65" height="33.87" style="fill:#3C93ED"></rect><rect x="308.06" y="294.91" width="3.65" height="33.87" style="fill:#3C93ED"></rect><rect x="320.53" y="294.91" width="3.65" height="33.87" style="fill:#3C93ED"></rect><polygon points="342.06 234.36 334 234.24 330.58 223.77 345.48 223.77 342.06 234.36" style="fill:#3C93ED"></polygon><rect x="589.71" y="223.77" width="12.34" height="105.01" transform="translate(1191.75 552.54) rotate(180)" style="fill:#3C93ED"></rect><rect x="480.25" y="223.77" width="6.75" height="105.01" transform="translate(967.24 552.54) rotate(180)" style="fill:#3C93ED"></rect><rect x="483.62" y="287.77" width="112.26" height="7.14" transform="translate(1079.5 582.68) rotate(180)" style="fill:#3C93ED"></rect><rect x="578.45" y="294.91" width="3.65" height="33.87" transform="translate(1160.55 623.68) rotate(180)" style="fill:#3C93ED"></rect><rect x="566.25" y="294.91" width="3.65" height="33.87" transform="translate(1136.14 623.68) rotate(180)" style="fill:#3C93ED"></rect><rect x="554.04" y="294.91" width="3.65" height="33.87" transform="translate(1111.73 623.68) rotate(180)" style="fill:#3C93ED"></rect><rect x="541.84" y="294.91" width="3.65" height="33.87" transform="translate(1087.32 623.68) rotate(180)" style="fill:#3C93ED"></rect><rect x="529.63" y="294.91" width="3.65" height="33.87" transform="translate(1062.91 623.68) rotate(180)" style="fill:#3C93ED"></rect><rect x="517.43" y="294.91" width="3.65" height="33.87" transform="translate(1038.5 623.68) rotate(180)" style="fill:#3C93ED"></rect><rect x="505.22" y="294.91" width="3.65" height="33.87" transform="translate(1014.09 623.68) rotate(180)" style="fill:#3C93ED"></rect><rect x="493.02" y="294.91" width="3.65" height="33.87" transform="translate(989.68 623.68) rotate(180)" style="fill:#3C93ED"></rect><polygon points="479.63 234.36 487.69 234.24 491.11 223.77 476.21 223.77 479.63 234.36" style="fill:#3C93ED"></polygon><polygon points="210.38 158.28 576.55 158.28 624.35 223.77 161.85 223.77 210.38 158.28" style="fill:#3C93ED"></polygon><polygon points="210.38 158.28 576.55 158.28 624.35 223.77 161.85 223.77 210.38 158.28" style="opacity:0.4"></polygon><path d="M173,208.8c109.76-.24,330.65-.24,440.39,0-109.77.24-330.65.24-440.39,0Z" style="fill:#263238"></path><path d="M182.84,195.28c105-.07,316.24.25,421.19.65-105,.07-316.23-.25-421.19-.65Z" style="fill:#263238"></path><path d="M194.8,181.44c99.42-.07,299.49.25,398.89.65-99.42.07-299.49-.25-398.89-.65Z" style="fill:#263238"></path><path d="M203.92,167.61c107.61,0,273,.15,379.31.64-105.91.13-272.2-.25-379.31-.64Z" style="fill:#263238"></path><polygon points="421.88 328.77 371.82 328.77 371.75 236.87 421.88 236.87 421.88 328.77" style="fill:#263238"></polygon><rect x="377.25" y="244.62" width="38.37" height="7.94" style="fill:#3C93ED"></rect><rect x="377.25" y="244.62" width="38.37" height="7.94" style="fill:#fff;opacity:0.4"></rect><rect x="384.84" y="264.57" width="24.42" height="47.99" style="fill:#3C93ED"></rect><rect x="384.84" y="264.57" width="24.42" height="47.99" style="fill:#fff;opacity:0.4"></rect><rect x="388.62" y="243.99" width="1.99" height="10.03" style="fill:#263238"></rect><rect x="403.4" y="243.58" width="1.99" height="10.03" style="fill:#263238"></rect><polygon points="417.12 328.77 416.62 328.77 416.62 255.53 377.5 255.53 377.5 328.77 377 328.77 377 255.03 417.12 255.03 417.12 328.77"></polygon><polygon points="419.56 328.77 419.06 328.77 419.06 240.53 374.83 240.53 374.83 328.77 374.33 328.77 374.33 240.03 419.56 240.03 419.56 328.77"></polygon><polygon points="409.27 270.22 384.84 290.87 384.84 297.79 409.27 277.48 409.27 270.22" style="fill:#fff;opacity:0.4"></polygon><polyline points="409.27 282.12 384.84 302.33 384.84 305.64 409.27 285.43 409.27 282.12" style="fill:#fff;opacity:0.4"></polyline><polygon points="371.75 236.87 374.58 240.28 419.31 240.28 421.88 236.87 371.75 236.87" style="opacity:0.30000000000000004"></polygon><polygon points="419.31 240.28 419.31 328.77 421.88 328.77 421.88 236.87 419.31 240.28" style="opacity:0.30000000000000004"></polygon><polygon points="374.58 240.28 374.58 328.77 371.82 328.77 371.75 236.87 374.58 240.28" style="fill:#fff;opacity:0.2"></polygon><path d="M358.88,273.16a11.47,11.47,0,0,1-2.42-1.29,3.12,3.12,0,0,1-1.19-1.93,2,2,0,0,1,.91-2,1.44,1.44,0,0,1,2,.63,2.3,2.3,0,0,1,.42-2.11,1.87,1.87,0,0,1,2-.55,1.6,1.6,0,0,1,1,1.83,1.68,1.68,0,0,1,2.57.36c.54.85.07,2-.47,2.82a7.18,7.18,0,0,1-2,2l1,.89a4.36,4.36,0,0,1-4.43.6Z" style="fill:#fff"></path><path d="M365,269.73a1.12,1.12,0,0,0-.74-.53,2.09,2.09,0,0,0-.93,0l-1.89,3.8a4.32,4.32,0,0,0,3.3-1.9A1.47,1.47,0,0,0,365,269.73Z" style="fill:#fff"></path><path d="M359.19,273.27a4.33,4.33,0,0,1-3.75-.71,1.47,1.47,0,0,1-.7-1.25,1.07,1.07,0,0,1,.52-.74,2,2,0,0,1,.89-.27" style="fill:#fff"></path><path d="M355.5,270.48a42.7,42.7,0,0,1,3.48,2.84,13.39,13.39,0,0,1-3.48-2.84Z" style="fill:#263238"></path><path d="M358.09,268.61c.58,1.52,1.07,3,1.63,4.54a12,12,0,0,1-1.63-4.54Z" style="fill:#263238"></path><path d="M361.49,267.76a24.4,24.4,0,0,1-.56,5,24.32,24.32,0,0,1,.56-5Z" style="fill:#263238"></path><path d="M361.76,273a42.65,42.65,0,0,1,2.58-3.87,14.15,14.15,0,0,1-2.58,3.87Z" style="fill:#263238"></path><path d="M354.5,263.9a9.74,9.74,0,0,1-2.35.05,2.7,2.7,0,0,1-1.7-.95,1.69,1.69,0,0,1-.15-1.87,1.25,1.25,0,0,1,1.74-.35,1.94,1.94,0,0,1-.57-1.76,1.6,1.6,0,0,1,1.3-1.26,1.37,1.37,0,0,1,1.47,1,1.45,1.45,0,0,1,2.08-.8c.76.41.87,1.45.83,2.31a6.45,6.45,0,0,1-.62,2.36l1.12.25a3.73,3.73,0,0,1-3.07,2.3Z" style="fill:#fff"></path><path d="M357.66,258.77a.91.91,0,0,0-.77-.09,1.85,1.85,0,0,0-.68.42l.16,3.64a3.71,3.71,0,0,0,1.69-2.81A1.22,1.22,0,0,0,357.66,258.77Z" style="fill:#fff"></path><path d="M354.78,263.86a3.75,3.75,0,0,1-3.12,1,1.22,1.22,0,0,1-1-.65.91.91,0,0,1,.08-.77,1.79,1.79,0,0,1,.56-.57" style="fill:#fff"></path><path d="M350.84,263.3a26,26,0,0,1,3.81.68,10.39,10.39,0,0,1-3.81-.68Z" style="fill:#263238"></path><path d="M352,260.82c1.09.88,2.07,1.79,3.12,2.72a9.48,9.48,0,0,1-3.12-2.72Z" style="fill:#263238"></path><path d="M354.2,258.76a17.59,17.59,0,0,1,1.66,3.95,18.27,18.27,0,0,1-1.66-3.95Z" style="fill:#263238"></path><path d="M356.61,262.61a29.8,29.8,0,0,1,.32-4,10.76,10.76,0,0,1-.32,4Z" style="fill:#263238"></path><g style="opacity:0.8"><rect x="190.16" y="223.77" width="12.34" height="105.01" style="fill:#fff"></rect><rect x="334.6" y="223.77" width="6.75" height="105.01" style="fill:#fff"></rect><rect x="196.33" y="287.77" width="139.12" height="7.14" style="fill:#fff"></rect><rect x="210.11" y="294.91" width="3.65" height="33.87" style="fill:#fff"></rect><rect x="222.31" y="294.91" width="3.65" height="33.87" style="fill:#fff"></rect><rect x="234.52" y="294.91" width="3.65" height="33.87" style="fill:#fff"></rect><rect x="246.72" y="294.91" width="3.65" height="33.87" style="fill:#fff"></rect><rect x="258.93" y="294.91" width="3.65" height="33.87" style="fill:#fff"></rect><rect x="271.13" y="294.91" width="3.65" height="33.87" style="fill:#fff"></rect><rect x="283.34" y="294.91" width="3.65" height="33.87" style="fill:#fff"></rect><rect x="295.54" y="294.91" width="3.65" height="33.87" style="fill:#fff"></rect><rect x="308.06" y="294.91" width="3.65" height="33.87" style="fill:#fff"></rect><rect x="320.57" y="294.91" width="3.65" height="33.87" style="fill:#fff"></rect><polygon points="341.97 234.36 333.9 234.24 330.48 223.77 345.38 223.77 341.97 234.36" style="fill:#fff"></polygon></g><rect x="186.43" y="328.77" width="420.78" height="6.3" style="fill:#fff"></rect><rect x="342.47" y="335.07" width="106.78" height="126.99" style="fill:#fff"></rect><rect x="342.47" y="335.07" width="106.78" height="3.44" style="opacity:0.30000000000000004"></rect><rect x="342.47" y="347.94" width="106.78" height="3.44" style="opacity:0.30000000000000004"></rect><rect x="342.47" y="360.82" width="106.78" height="3.44" style="opacity:0.30000000000000004"></rect><rect x="342.47" y="373.69" width="106.78" height="3.44" style="opacity:0.30000000000000004"></rect><rect x="342.47" y="386.57" width="106.78" height="3.44" style="opacity:0.30000000000000004"></rect><rect x="342.47" y="399.44" width="106.78" height="3.44" style="opacity:0.30000000000000004"></rect><rect x="342.47" y="412.31" width="106.78" height="3.44" style="opacity:0.30000000000000004"></rect><rect x="342.47" y="425.19" width="106.78" height="3.44" style="opacity:0.30000000000000004"></rect><rect x="342.47" y="438.06" width="106.78" height="3.44" style="opacity:0.30000000000000004"></rect><rect x="342.47" y="450.94" width="106.78" height="3.44" style="opacity:0.30000000000000004"></rect><path d="M342.38,347.94c34.23-.3,72.63-.3,106.87,0-34.24.31-72.64.31-106.87,0Z" style="fill:#263238"></path><path d="M342.38,360.82c34.23-.31,72.63-.31,106.87,0-34.24.31-72.64.3-106.87,0Z" style="fill:#263238"></path><path d="M342.38,373.69c34.23-.3,72.63-.31,106.87,0-34.24.31-72.64.31-106.87,0Z" style="fill:#263238"></path><path d="M342.38,386.57c34.23-.31,72.63-.31,106.87,0-34.24.3-72.64.3-106.87,0Z" style="fill:#263238"></path><path d="M342.38,399.44c34.23-.31,72.63-.31,106.87,0-34.24.31-72.64.31-106.87,0Z" style="fill:#263238"></path><path d="M342.38,412.31c34.23-.3,72.63-.3,106.87,0-34.24.31-72.64.31-106.87,0Z" style="fill:#263238"></path><path d="M342.38,425.19c34.23-.31,72.63-.31,106.87,0-34.24.31-72.64.3-106.87,0Z" style="fill:#263238"></path><path d="M342.38,438.06c34.23-.3,72.63-.31,106.87,0-34.24.31-72.64.31-106.87,0Z" style="fill:#263238"></path><path d="M342.38,450.94c34.23-.31,72.63-.31,106.87,0-34.24.31-72.64.3-106.87,0Z" style="fill:#263238"></path><rect x="190.16" y="223.77" width="411.89" height="5.24" style="opacity:0.2"></rect><rect x="202.46" y="294.91" width="132.14" height="2.67" style="opacity:0.30000000000000004"></rect><rect x="528.04" y="238.08" width="54.73" height="42.65" transform="translate(1110.81 518.81) rotate(180)" style="fill:#fff"></rect><rect x="530.53" y="240.32" width="49.6" height="37.82" transform="translate(1110.66 518.47) rotate(180)" style="fill:#3C93ED"></rect><rect x="530.53" y="240.32" width="49.6" height="37.82" transform="translate(1110.66 518.47) rotate(180)" style="fill:#fff;opacity:0.4"></rect><polygon points="530.53 245.06 580.13 263.9 580.13 272.46 530.53 253.37 530.53 245.06" style="fill:#fff;opacity:0.4"></polygon><polygon points="530.53 255.8 580.13 274.64 580.13 278.14 530.53 259.23 530.53 255.8" style="fill:#fff;opacity:0.4"></polygon><rect x="554.08" y="239.73" width="2.5" height="39.02" transform="translate(1110.66 518.47) rotate(180)" style="fill:#fff"></rect><rect x="554.94" y="224.09" width="2.61" height="53.04" transform="translate(305.63 806.86) rotate(-90)" style="fill:#fff"></rect><polygon points="582.77 238.08 580.13 240.32 530.53 240.32 528.04 238.08 582.77 238.08" style="opacity:0.30000000000000004"></polygon><rect x="468.79" y="238.08" width="54.73" height="42.65" transform="translate(992.3 518.81) rotate(180)" style="fill:#fff"></rect><rect x="471.28" y="240.32" width="49.6" height="37.82" transform="translate(992.16 518.47) rotate(180)" style="fill:#3C93ED"></rect><rect x="471.28" y="240.32" width="49.6" height="37.82" transform="translate(992.16 518.47) rotate(180)" style="fill:#fff;opacity:0.4"></rect><polygon points="471.28 245.06 520.88 263.9 520.88 272.46 471.28 253.37 471.28 245.06" style="fill:#fff;opacity:0.4"></polygon><polygon points="471.28 255.8 520.88 274.64 520.88 278.14 471.28 259.23 471.28 255.8" style="fill:#fff;opacity:0.4"></polygon><rect x="494.83" y="239.73" width="2.5" height="39.02" transform="translate(992.16 518.47) rotate(180)" style="fill:#fff"></rect><rect x="495.69" y="224.09" width="2.61" height="53.04" transform="translate(246.38 747.61) rotate(-90)" style="fill:#fff"></rect><polygon points="523.51 238.08 520.88 240.32 471.28 240.32 468.79 238.08 523.51 238.08" style="opacity:0.30000000000000004"></polygon><rect x="590.51" y="223.77" width="12.34" height="105.01" transform="translate(1193.35 552.54) rotate(180)" style="fill:#3C93ED"></rect><rect x="451.56" y="223.77" width="6.75" height="105.01" transform="translate(909.87 552.54) rotate(180)" style="fill:#3C93ED"></rect><rect x="457.55" y="287.77" width="139.12" height="7.14" transform="translate(1054.23 582.68) rotate(180)" style="fill:#3C93ED"></rect><rect x="579.25" y="294.91" width="3.65" height="33.87" transform="translate(1162.15 623.68) rotate(180)" style="fill:#3C93ED"></rect><rect x="567.05" y="294.91" width="3.65" height="33.87" transform="translate(1137.74 623.68) rotate(180)" style="fill:#3C93ED"></rect><rect x="554.84" y="294.91" width="3.65" height="33.87" transform="translate(1113.33 623.68) rotate(180)" style="fill:#3C93ED"></rect><rect x="542.64" y="294.91" width="3.65" height="33.87" transform="translate(1088.92 623.68) rotate(180)" style="fill:#3C93ED"></rect><rect x="530.43" y="294.91" width="3.65" height="33.87" transform="translate(1064.51 623.68) rotate(180)" style="fill:#3C93ED"></rect><rect x="518.23" y="294.91" width="3.65" height="33.87" transform="translate(1040.1 623.68) rotate(180)" style="fill:#3C93ED"></rect><rect x="506.02" y="294.91" width="3.65" height="33.87" transform="translate(1015.69 623.68) rotate(180)" style="fill:#3C93ED"></rect><rect x="493.81" y="294.91" width="3.65" height="33.87" transform="translate(991.28 623.68) rotate(180)" style="fill:#3C93ED"></rect><rect x="481.3" y="294.91" width="3.65" height="33.87" transform="translate(966.25 623.68) rotate(180)" style="fill:#3C93ED"></rect><rect x="468.83" y="294.91" width="3.65" height="33.87" transform="translate(941.3 623.68) rotate(180)" style="fill:#3C93ED"></rect><polygon points="450.94 234.36 459.01 234.24 462.43 223.77 447.53 223.77 450.94 234.36" style="fill:#3C93ED"></polygon><g style="opacity:0.8"><rect x="590.51" y="223.77" width="12.34" height="105.01" transform="translate(1193.35 552.54) rotate(180)" style="fill:#fff"></rect><rect x="451.66" y="223.77" width="6.75" height="105.01" transform="translate(910.06 552.54) rotate(180)" style="fill:#fff"></rect><rect x="457.55" y="287.77" width="139.12" height="7.14" transform="translate(1054.23 582.68) rotate(180)" style="fill:#fff"></rect><rect x="579.25" y="294.91" width="3.65" height="33.87" transform="translate(1162.15 623.68) rotate(180)" style="fill:#fff"></rect><rect x="567.05" y="294.91" width="3.65" height="33.87" transform="translate(1137.74 623.68) rotate(180)" style="fill:#fff"></rect><rect x="554.84" y="294.91" width="3.65" height="33.87" transform="translate(1113.33 623.68) rotate(180)" style="fill:#fff"></rect><rect x="542.64" y="294.91" width="3.65" height="33.87" transform="translate(1088.92 623.68) rotate(180)" style="fill:#fff"></rect><rect x="530.43" y="294.91" width="3.65" height="33.87" transform="translate(1064.51 623.68) rotate(180)" style="fill:#fff"></rect><rect x="518.23" y="294.91" width="3.65" height="33.87" transform="translate(1040.1 623.68) rotate(180)" style="fill:#fff"></rect><rect x="506.02" y="294.91" width="3.65" height="33.87" transform="translate(1015.69 623.68) rotate(180)" style="fill:#fff"></rect><rect x="493.81" y="294.91" width="3.65" height="33.87" transform="translate(991.28 623.68) rotate(180)" style="fill:#fff"></rect><rect x="481.3" y="294.91" width="3.65" height="33.87" transform="translate(966.25 623.68) rotate(180)" style="fill:#fff"></rect><rect x="468.79" y="294.91" width="3.65" height="33.87" transform="translate(941.23 623.68) rotate(180)" style="fill:#fff"></rect><polygon points="451.04 234.36 459.1 234.24 462.52 223.77 447.62 223.77 451.04 234.36" style="fill:#fff"></polygon></g><rect x="458.41" y="294.91" width="132.14" height="2.67" style="opacity:0.30000000000000004"></rect><rect x="461.55" y="347.94" width="123.93" height="114.12" style="opacity:0.30000000000000004"></rect><rect x="467.5" y="352.83" width="112.29" height="109.24" style="fill:#e0e0e0"></rect><rect x="467.5" y="362.73" width="112.29" height="0.76" style="opacity:0.30000000000000004"></rect><rect x="467.5" y="367.6" width="112.29" height="0.76" style="opacity:0.30000000000000004"></rect><rect x="467.5" y="372.48" width="112.29" height="0.76" style="opacity:0.30000000000000004"></rect><rect x="467.5" y="377.35" width="112.29" height="0.76" style="opacity:0.30000000000000004"></rect><rect x="467.5" y="382.23" width="112.29" height="0.76" style="opacity:0.30000000000000004"></rect><rect x="467.5" y="387.1" width="112.29" height="0.76" style="opacity:0.30000000000000004"></rect><rect x="467.5" y="391.98" width="112.29" height="0.76" style="opacity:0.30000000000000004"></rect><rect x="467.5" y="396.85" width="112.29" height="0.76" style="opacity:0.30000000000000004"></rect><rect x="467.5" y="401.73" width="112.29" height="0.76" style="opacity:0.30000000000000004"></rect><rect x="467.5" y="406.6" width="112.29" height="0.76" style="opacity:0.30000000000000004"></rect><rect x="467.5" y="411.48" width="112.29" height="0.76" style="opacity:0.30000000000000004"></rect><rect x="467.5" y="416.35" width="112.29" height="0.76" style="opacity:0.30000000000000004"></rect><rect x="467.5" y="421.23" width="112.29" height="0.76" style="opacity:0.30000000000000004"></rect><rect x="467.5" y="426.1" width="112.29" height="0.76" style="opacity:0.30000000000000004"></rect><rect x="467.5" y="430.98" width="112.29" height="0.76" style="opacity:0.30000000000000004"></rect><rect x="467.5" y="435.85" width="112.29" height="0.76" style="opacity:0.30000000000000004"></rect><rect x="467.5" y="440.73" width="112.29" height="0.76" style="opacity:0.30000000000000004"></rect><rect x="467.5" y="445.6" width="112.29" height="0.76" style="opacity:0.30000000000000004"></rect><rect x="467.5" y="450.48" width="112.29" height="0.76" style="opacity:0.30000000000000004"></rect><rect x="467.5" y="455.35" width="112.29" height="0.76" style="opacity:0.30000000000000004"></rect><rect x="467.5" y="460.23" width="112.29" height="0.76" style="opacity:0.30000000000000004"></rect><rect x="467.5" y="357.67" width="112.29" height="0.76" style="opacity:0.30000000000000004"></rect><rect x="202.5" y="347.94" width="17" height="114.12" style="fill:#3C93ED"></rect><rect x="341.44" y="288.57" width="5.95" height="173.49" style="fill:#3C93ED"></rect><rect x="341.44" y="288.57" width="5.95" height="173.49" style="fill:#fff;opacity:0.6000000000000001"></rect><rect x="445.58" y="287.57" width="5.95" height="174.49" style="fill:#3C93ED"></rect><rect x="445.58" y="287.57" width="5.95" height="174.49" style="fill:#fff;opacity:0.6000000000000001"></rect><rect x="202.5" y="351.38" width="17" height="11.16" style="opacity:0.30000000000000004"></rect></g><g id="freepik--Plants--inject-329"><path d="M114.63,455.21a25.57,25.57,0,0,0,.2-13.8,45,45,0,0,1-7.93,12.89,123.48,123.48,0,0,0-3.35-18.2,44,44,0,0,0-3,19.47,94,94,0,0,0-12-10A22,22,0,0,0,99.8,462.85l11.91,0a15.9,15.9,0,0,0,11.41-15.22A17.51,17.51,0,0,1,114.63,455.21Z" style="fill:#263238"></path><path d="M612.8,454.39a25.8,25.8,0,0,0,.2-13.81,45.11,45.11,0,0,1-7.93,12.9,123.51,123.51,0,0,0-3.36-18.2,44,44,0,0,0-2.94,19.47,93.31,93.31,0,0,0-12-10A22,22,0,0,0,598,462l11.91,0a15.89,15.89,0,0,0,11.41-15.21A17.56,17.56,0,0,1,612.8,454.39Z" style="fill:#263238"></path></g></svg>
