<svg xmlns="http://www.w3.org/2000/svg" viewBox="0 0 500 500"><g id="freepik--background-complete--inject-155"><rect y="382.4" width="500" height="0.25" style="fill:#ebebeb"></rect><rect x="359" y="391.92" width="90.9" height="0.25" style="fill:#ebebeb"></rect><rect x="306.33" y="389.21" width="24.89" height="0.25" style="fill:#ebebeb"></rect><rect x="349.52" y="401.21" width="38.59" height="0.25" style="fill:#ebebeb"></rect><rect x="52.46" y="399.53" width="22.64" height="0.25" style="fill:#ebebeb"></rect><rect x="84" y="399.53" width="26.89" height="0.25" style="fill:#ebebeb"></rect><rect x="178.31" y="395.31" width="46.84" height="0.25" style="fill:#ebebeb"></rect><path d="M237,337.8H43.91a5.71,5.71,0,0,1-5.7-5.71V60.66A5.71,5.71,0,0,1,43.91,55H237a5.71,5.71,0,0,1,5.71,5.71V332.09A5.71,5.71,0,0,1,237,337.8ZM43.91,55.2a5.46,5.46,0,0,0-5.45,5.46V332.09a5.46,5.46,0,0,0,5.45,5.46H237a5.47,5.47,0,0,0,5.46-5.46V60.66A5.47,5.47,0,0,0,237,55.2Z" style="fill:#ebebeb"></path><path d="M453.31,337.8H260.21a5.72,5.72,0,0,1-5.71-5.71V60.66A5.72,5.72,0,0,1,260.21,55h193.1A5.71,5.71,0,0,1,459,60.66V332.09A5.71,5.71,0,0,1,453.31,337.8ZM260.21,55.2a5.47,5.47,0,0,0-5.46,5.46V332.09a5.47,5.47,0,0,0,5.46,5.46h193.1a5.47,5.47,0,0,0,5.46-5.46V60.66a5.47,5.47,0,0,0-5.46-5.46Z" style="fill:#ebebeb"></path><circle cx="383.32" cy="130.73" r="34.8" style="fill:#fafafa"></circle><path d="M60,159.05a13.22,13.22,0,0,1,3.5.67c.28-2.32,3.08-3.75,8.06-3.59a35.66,35.66,0,0,1,8.16,1.34c-1.73-3.51,0-6,4.9-6a26.18,26.18,0,0,1,9.4,2.14c.7-2.35,3.37-3.8,7.86-3.8,7.14,0,16.81,3.68,24.19,8.83,3.56.1,10.38,2.13,11.54,4H58.69l-.38-.34C56.39,160.4,57.15,159,60,159.05Z" style="fill:#e6e6e6"></path><path d="M370.29,133.21a14.48,14.48,0,0,1,3.87.74c.3-2.56,3.4-4.14,8.91-4a39.76,39.76,0,0,1,9,1.48c-1.92-3.87,0-6.62,5.42-6.62a29,29,0,0,1,10.39,2.37c.78-2.6,3.73-4.2,8.69-4.2,7.9,0,18.59,4.06,26.76,9.77,3.93.1,11.48,2.35,12.76,4.37h-87.3l-.42-.38C366.28,134.71,367.12,133.11,370.29,133.21Z" style="fill:#f0f0f0"></path><path d="M82.45,109.17a19.41,19.41,0,0,1,5.65,1.25c-1-4.33,2.32-7,9.86-6.69a52.23,52.23,0,0,1,13,2.49s0,0,0,0c-4.72-6.52-3.58-11.14,3.72-11.14,4.15,0,9.62,1.49,15.34,4-.38-4.39,2.75-7.08,9.46-7.08,8.32,0,20.26,4.14,31.83,10.5.32-1.85,2.07-2.94,5.27-2.94,4.45,0,10.71,2.09,16.9,5.37.4,0,.82,0,1.26,0,7.88.55,18.94,4.78,25.36,9.62H81.21C77.87,111.4,78.33,109,82.45,109.17Z" style="fill:#f0f0f0"></path><path d="M343.14,163.3a8.42,8.42,0,0,1,2.33.51c-.42-1.78.95-2.88,4.06-2.75a21.57,21.57,0,0,1,5.38,1h0c-1.94-2.68-1.48-4.59,1.53-4.59a17.06,17.06,0,0,1,6.33,1.65c-.16-1.81,1.13-2.92,3.9-2.92,3.43,0,8.35,1.7,13.13,4.33.13-.77.85-1.22,2.17-1.22a16.7,16.7,0,0,1,7,2.22,4.79,4.79,0,0,1,.52,0,22.54,22.54,0,0,1,10.45,4H342.63C341.25,164.22,341.44,163.24,343.14,163.3Z" style="fill:#fafafa"></path><path d="M388.42,65.62c5.41-1.76,8.65-4.83,12.88-.3-5.68-3.34-12.53,2.57-12.53,2.57s-8.32-3.55-12.71,1.36C378.7,63.65,382.72,65.6,388.42,65.62Z" style="fill:#e0e0e0"></path><path d="M364.1,83.14c3.44-1.11,5.5-3.07,8.18-.19-3.61-2.12-8,1.64-8,1.64s-5.28-2.26-8.07.86C357.93,81.89,360.48,83.13,364.1,83.14Z" style="fill:#e0e0e0"></path><path d="M110.21,75.61c4.62-1.15,7.49-3.53,10.75.49-4.54-3.11-10.58,1.43-10.58,1.43s-6.73-3.44-10.67.41C102.23,73.42,105.47,75.27,110.21,75.61Z" style="fill:#e0e0e0"></path><polygon points="145.82 243.89 90.39 243.89 73.2 256.94 73.2 251.68 62.42 251.68 62.42 265.12 50.22 274.39 50.22 274.39 50.22 276.79 50.22 382.4 80.4 382.4 90.39 382.4 186 382.4 186 274.39 145.82 243.89" style="fill:#f0f0f0"></polygon><polygon points="57.99 299.91 101.63 299.91 115.17 310.19 115.17 306.05 123.65 306.05 123.65 316.63 133.26 323.92 133.26 323.92 133.26 325.82 133.26 382.4 109.5 382.4 101.63 382.4 26.36 382.4 26.36 323.92 57.99 299.91" style="fill:#f5f5f5"></polygon><polygon points="376.32 299.91 419.96 299.91 433.49 310.19 433.49 306.05 441.98 306.05 441.98 316.63 451.59 323.92 451.59 323.92 451.59 325.82 451.59 382.4 427.82 382.4 419.96 382.4 344.69 382.4 344.69 323.92 376.32 299.91" style="fill:#f5f5f5"></polygon></g><g id="freepik--Shadow--inject-155"><ellipse id="freepik--path--inject-155" cx="250" cy="416.24" rx="193.89" ry="11.32" style="fill:#f5f5f5"></ellipse></g><g id="freepik--House--inject-155"><rect x="87" y="191.09" width="320" height="191.02" style="fill:#FC4C9A"></rect><rect x="87" y="191.09" width="320" height="191.02" style="opacity:0.2"></rect><polygon points="87 191.09 407 191.09 407 217.28 87 223.67 87 191.09" style="opacity:0.2"></polygon><rect x="87" y="382.11" width="338.67" height="34.13" style="fill:#263238"></rect><rect x="125.99" y="240.33" width="127.67" height="181.46" style="fill:#FC4C9A"></rect><polygon points="125.99 260.78 253.66 253.67 253.66 240.33 125.99 240.33 125.99 260.78" style="opacity:0.2"></polygon><rect x="115.15" y="239.17" width="149.35" height="7.11" style="fill:#fff"></rect><polygon points="135.15 215.44 244.5 215.44 264.5 239.17 115.15 239.17 135.15 215.44" style="fill:#263238"></polygon><rect x="159.77" y="266.78" width="60.11" height="120.35" style="fill:#fff"></rect><polygon points="217.38 387.13 216.38 387.13 216.38 270.28 163.27 270.28 163.27 387.13 162.27 387.13 162.27 269.28 217.38 269.28 217.38 387.13" style="fill:#e0e0e0"></polygon><path d="M169.91,330.76a2.85,2.85,0,1,1-2.85-2.84A2.85,2.85,0,0,1,169.91,330.76Z" style="fill:#FC4C9A"></path><rect x="154.94" y="387.13" width="69.78" height="12.19" style="fill:#263238"></rect><rect x="145.94" y="399.32" width="87.78" height="12.19" style="fill:#263238"></rect><rect x="134.69" y="411.51" width="110.28" height="12.19" style="fill:#263238"></rect><circle cx="189.82" cy="304.14" r="17.25" transform="translate(-159.46 223.31) rotate(-45)" style="fill:#FC4C9A"></circle><path d="M197.34,288.6l-8.92,32.73q.71.06,1.41.06a17.14,17.14,0,0,0,3.14-.29l8.17-30A17.08,17.08,0,0,0,197.34,288.6Z" style="fill:#fff;opacity:0.30000000000000004"></path><path d="M189.83,286.89a17.12,17.12,0,0,0-6,1.06l-7.38,27.12a17.24,17.24,0,0,0,7.52,5.31l9.05-33.19A17.07,17.07,0,0,0,189.83,286.89Z" style="fill:#fff;opacity:0.30000000000000004"></path><path d="M189.77,326.92h0a1.34,1.34,0,0,1-1.33-1.34v-43a1.34,1.34,0,0,1,1.33-1.33h0a1.34,1.34,0,0,1,1.33,1.33v43A1.34,1.34,0,0,1,189.77,326.92Z" style="fill:#fff"></path><path d="M166.94,304.08h0a1.34,1.34,0,0,1,1.33-1.33h43a1.34,1.34,0,0,1,1.33,1.33h0a1.34,1.34,0,0,1-1.33,1.34h-43A1.34,1.34,0,0,1,166.94,304.08Z" style="fill:#fff"></path><rect x="278.78" y="248.78" width="96" height="114.44" style="fill:#fff"></rect><rect x="84.11" y="248.78" width="2.89" height="114.44" style="fill:#FC4C9A"></rect><rect x="272.56" y="261" width="108.44" height="90" transform="translate(632.78 -20.78) rotate(90)" style="fill:#FC4C9A"></rect><rect x="271.78" y="301.11" width="110" height="9.78" transform="translate(632.78 -20.78) rotate(90)" style="fill:#fff"></rect><polygon points="291.55 361 306.28 251 325.39 251 310.65 361 291.55 361" style="fill:#fff;opacity:0.30000000000000004"></polygon><polygon points="330.61 361 345.35 251 351.87 251 337.13 361 330.61 361" style="fill:#fff;opacity:0.30000000000000004"></polygon><rect x="253.91" y="376.67" width="171.76" height="5.44" style="fill:#e0e0e0"></rect><rect x="253.91" y="313.67" width="171.76" height="5.44" style="fill:#e0e0e0"></rect><rect x="420.37" y="319.11" width="3.52" height="57.56" style="fill:#e0e0e0"></rect><rect x="380.81" y="319.11" width="3.52" height="57.56" style="fill:#e0e0e0"></rect><rect x="341.24" y="319.11" width="3.52" height="57.56" style="fill:#e0e0e0"></rect><rect x="301.68" y="319.11" width="3.52" height="57.56" style="fill:#e0e0e0"></rect><rect x="262.11" y="319.11" width="3.52" height="57.56" style="fill:#e0e0e0"></rect><rect x="82.32" y="189.08" width="329.35" height="7.11" style="fill:#fff"></rect><path d="M112.22,147.61,229,43.82,345.78,147.61a7.57,7.57,0,0,1-5,13.23H117.25A7.57,7.57,0,0,1,112.22,147.61Z" style="fill:#263238"></path><path d="M282,61.88h35.51a3.25,3.25,0,0,1,3.25,3.25V130a0,0,0,0,1,0,0h-42a0,0,0,0,1,0,0V65.12A3.25,3.25,0,0,1,282,61.88Z" style="fill:#263238"></path><polygon points="229 55.37 120.98 151.38 337.02 151.38 229 55.37" style="fill:#FC4C9A"></polygon><polygon points="229 55.37 120.98 151.38 232.47 58.46 229 55.37" style="opacity:0.2"></polygon><polygon points="102.33 145.48 391.68 145.48 411.68 189.08 82.33 189.08 102.33 145.48" style="fill:#263238"></polygon><circle cx="229" cy="108.63" r="27.11" transform="translate(85.09 317.27) rotate(-80.78)" style="opacity:0.2"></circle><circle cx="229" cy="105.71" r="27.11" style="fill:#fff"></circle><circle cx="229" cy="105.71" r="23.27" style="fill:#FC4C9A"></circle><path d="M239.13,84.75l-12,44.16c.63.05,1.27.08,1.9.08a23.8,23.8,0,0,0,4.24-.39l11-40.45A23,23,0,0,0,239.13,84.75Z" style="fill:#fff;opacity:0.30000000000000004"></path><path d="M229,82.44A23.07,23.07,0,0,0,221,83.87l-10,36.59a23.22,23.22,0,0,0,10.14,7.17l12.21-44.78A23,23,0,0,0,229,82.44Z" style="fill:#fff;opacity:0.30000000000000004"></path><rect x="227.13" y="79.21" width="3.6" height="52.87" rx="1.67" style="fill:#fff"></rect><rect x="227.13" y="79.93" width="3.6" height="51.42" rx="1.64" transform="translate(334.56 -123.29) rotate(90)" style="fill:#fff"></rect><path d="M301.68,368.44A28.23,28.23,0,0,0,284,375.09v47.8h19.48l4.74-54.45Z" style="fill:#FC4C9A"></path><path d="M301.68,368.44A28.23,28.23,0,0,0,284,375.09v47.8h19.48l4.74-54.45Z" style="opacity:0.6000000000000001"></path><path d="M308.17,368.44a28.23,28.23,0,0,0-17.73,6.65v47.8h35.45v-47.8A28.22,28.22,0,0,0,308.17,368.44Z" style="fill:#FC4C9A"></path><path d="M322.39,419.89h-1v-42.6a22.31,22.31,0,0,0-26.66.14l-.58-.81a23.33,23.33,0,0,1,28,0l.21.15Z" style="fill:#fff"></path><rect x="298.89" y="387.5" width="18.56" height="1" style="fill:#fff"></rect><rect x="302.89" y="392.5" width="10.56" height="1" style="fill:#fff"></rect></g><g id="freepik--Candle--inject-155"><path d="M391.71,291.23c-2.84.81-3.4-1.82-2.67-4.24s1.72-3.65,1.57-6.35C393.06,285.47,394.62,290.41,391.71,291.23Z" style="fill:#fff;opacity:0.30000000000000004"></path><path d="M390.81,290.88c1.46.48,1.72-1,1.34-2.39s-.9-2.09-.84-3.62C390.09,287.6,389.33,290.39,390.81,290.88Z" style="fill:#fff;opacity:0.30000000000000004"></path><path d="M390.87,295.59h-.07a.5.5,0,0,1-.42-.57,27.56,27.56,0,0,0,.27-4.62.49.49,0,0,1,.47-.52.49.49,0,0,1,.53.47,28.93,28.93,0,0,1-.28,4.82A.51.51,0,0,1,390.87,295.59Z" style="fill:#263238"></path><path d="M395.35,312.61c-.64-.22-.91-1.89-.91-1.89s1.23.61.84-1a118.27,118.27,0,0,1-1-13.94c.66-.28,1.16-2.17,0-2.06-2.07.2-5.5-.28-6.61,0s-1,1.28-.23,1.5c0,.95-.16,6.5-1,7.89s.78,1.5.78,1.5c-.05,2.67,0,6.61-1,7.45s-.11,1.61,1.89,1.61h7.24S396,312.83,395.35,312.61Z" style="fill:#fff"></path></g><g id="freepik--Cobwebs--inject-155"><path d="M159.77,264.81a.27.27,0,0,1-.12,0L125.87,246.5a.26.26,0,0,1-.1-.34.25.25,0,0,1,.34-.1l33.78,18.28a.24.24,0,0,1,.1.33A.25.25,0,0,1,159.77,264.81Z" style="fill:#fff"></path><path d="M166.72,253.36h0L126,246.52a.23.23,0,0,1-.2-.28A.25.25,0,0,1,126,246l40.73,6.83a.26.26,0,0,1,.21.29A.26.26,0,0,1,166.72,253.36Z" style="fill:#fff"></path><path d="M160.5,281.86a.24.24,0,0,1-.18-.07l-34.51-35.34a.25.25,0,0,1,0-.35.24.24,0,0,1,.35,0l34.51,35.34a.24.24,0,0,1,0,.35A.22.22,0,0,1,160.5,281.86Z" style="fill:#fff"></path><path d="M130.22,255.67a.26.26,0,0,1-.24-.18.25.25,0,0,1,.16-.31L133.7,254a.24.24,0,0,1,.31.16.25.25,0,0,1-.15.32l-3.56,1.16Z" style="fill:#fff"></path><path d="M143.25,283.81a.25.25,0,0,1-.23-.15l-17.25-37.28a.24.24,0,0,1,.12-.33.25.25,0,0,1,.33.12l17.25,37.28a.24.24,0,0,1-.12.33A.19.19,0,0,1,143.25,283.81Z" style="fill:#fff"></path><path d="M130.33,277a.24.24,0,0,1-.24-.21l-4.34-30.45A.25.25,0,0,1,126,246a.25.25,0,0,1,.28.21l4.34,30.45a.25.25,0,0,1-.21.28Z" style="fill:#fff"></path><path d="M128.56,264.56h0l-2.57-.36a.24.24,0,0,1-.21-.28.24.24,0,0,1,.28-.21l2.57.36a.25.25,0,0,1,0,.5Z" style="fill:#fff"></path><path d="M128.29,262.68a.26.26,0,0,1-.24-.19.25.25,0,0,1,.18-.3l4.64-1.17a.25.25,0,0,1,.3.18.25.25,0,0,1-.18.3l-4.63,1.17Z" style="fill:#fff"></path><path d="M135.77,267.64a.25.25,0,0,1-.2-.09.24.24,0,0,1,0-.35l6.2-4.77a.24.24,0,0,1,.35,0,.25.25,0,0,1,0,.35l-6.19,4.77A.23.23,0,0,1,135.77,267.64Z" style="fill:#fff"></path><path d="M140,260.89a.23.23,0,0,1-.15-.05.25.25,0,0,1-.05-.35l3.66-4.79a.25.25,0,1,1,.4.3l-3.66,4.8A.25.25,0,0,1,140,260.89Z" style="fill:#fff"></path><path d="M148.81,258.88h0a.24.24,0,0,1-.2-.29l1.51-8.27a.25.25,0,0,1,.29-.2.26.26,0,0,1,.2.29l-1.51,8.27A.26.26,0,0,1,148.81,258.88Z" style="fill:#fff"></path><path d="M146.25,257.49h-.06a.25.25,0,0,1-.18-.3l1.93-7.24a.25.25,0,1,1,.48.12l-1.92,7.25A.26.26,0,0,1,146.25,257.49Z" style="fill:#fff"></path><path d="M148.94,270a.24.24,0,0,1-.14,0,.25.25,0,0,1-.06-.35l5.64-8a.25.25,0,1,1,.41.28l-5.64,8A.26.26,0,0,1,148.94,270Z" style="fill:#fff"></path><path d="M136.87,257.67a.22.22,0,0,1-.13,0,.25.25,0,0,1-.08-.34l2.48-3.92a.25.25,0,0,1,.35-.07.24.24,0,0,1,.07.34l-2.48,3.91A.22.22,0,0,1,136.87,257.67Z" style="fill:#fff"></path><path d="M141.17,254.74a.23.23,0,0,1-.11,0,.26.26,0,0,1-.11-.34l2.57-5.23a.24.24,0,0,1,.33-.12.25.25,0,0,1,.12.34l-2.57,5.23A.25.25,0,0,1,141.17,254.74Z" style="fill:#fff"></path><path d="M136.78,269.84a.25.25,0,0,1-.12-.47l7.71-4.37a.25.25,0,0,1,.34.09.26.26,0,0,1-.1.35l-7.71,4.37A.24.24,0,0,1,136.78,269.84Z" style="fill:#fff"></path><path d="M158,251.9a.26.26,0,0,1-.25-.22l-.75-5.94a.25.25,0,1,1,.5-.06l.75,5.94a.25.25,0,0,1-.22.28Z" style="fill:#fff"></path><path d="M127.8,259.2a.24.24,0,0,1-.23-.14.26.26,0,0,1,.13-.34l3.35-1.52a.25.25,0,1,1,.2.45l-3.35,1.53Z" style="fill:#fff"></path><path d="M332.92,223.24a.26.26,0,0,1-.24-.17.25.25,0,0,1,.15-.32l74.09-26a.25.25,0,0,1,.16.48l-74.08,26Z" style="fill:#fff"></path><path d="M317.67,207a.25.25,0,0,1-.25-.23.24.24,0,0,1,.22-.27L407,196.75a.26.26,0,0,1,.28.22.26.26,0,0,1-.22.28L317.69,207Z" style="fill:#fff"></path><path d="M378.77,216a.28.28,0,0,1-.17-.07l-6.76-6.47a.25.25,0,0,1,0-.35.26.26,0,0,1,.36,0l6.76,6.46a.25.25,0,0,1,0,.36A.23.23,0,0,1,378.77,216Z" style="fill:#fff"></path><path d="M373.81,200.86a.26.26,0,0,1-.24-.17L372,195.91a.25.25,0,0,1,.48-.16l1.59,4.78a.26.26,0,0,1-.16.32Z" style="fill:#fff"></path><path d="M327.15,250.25a.26.26,0,0,1-.21-.11.26.26,0,0,1,.07-.35l79.85-53a.25.25,0,0,1,.28.42l-79.85,53A.25.25,0,0,1,327.15,250.25Z" style="fill:#fff"></path><path d="M397.72,210.24h-.05l-7.8-1.66a.25.25,0,1,1,.11-.49l7.79,1.66a.25.25,0,0,1,.2.3A.26.26,0,0,1,397.72,210.24Z" style="fill:#fff"></path><path d="M369.16,250.25a.3.3,0,0,1-.15-.05.25.25,0,0,1-.06-.35l37.85-53a.25.25,0,0,1,.4.3l-37.84,53A.26.26,0,0,1,369.16,250.25Z" style="fill:#fff"></path><path d="M397.48,240.53h-.06a.25.25,0,0,1-.19-.3L406.76,197a.24.24,0,0,1,.29-.19.24.24,0,0,1,.19.29l-9.52,43.29A.24.24,0,0,1,397.48,240.53Z" style="fill:#fff"></path><path d="M401.36,222.88a.24.24,0,0,1-.25-.22.26.26,0,0,1,.23-.28l5.64-.51a.24.24,0,0,1,.27.22.26.26,0,0,1-.23.28l-5.64.51Z" style="fill:#fff"></path><path d="M402,220.21h0l-10.16-1.66-11.86-3.36a.25.25,0,0,1-.17-.31.26.26,0,0,1,.31-.18l11.83,3.36L402,219.72a.25.25,0,0,1,.21.28A.27.27,0,0,1,402,220.21Z" style="fill:#fff"></path><path d="M385.56,227.27l-.11,0-13.58-6.78a.26.26,0,0,1-.11-.34.25.25,0,0,1,.33-.11l13.59,6.78a.25.25,0,0,1,.11.33A.25.25,0,0,1,385.56,227.27Z" style="fill:#fff"></path><path d="M376.23,217.67a.26.26,0,0,1-.17,0l-8-6.82a.25.25,0,0,1,0-.36.25.25,0,0,1,.35,0l8,6.81a.26.26,0,0,1,0,.36A.24.24,0,0,1,376.23,217.67Z" style="fill:#fff"></path><path d="M357,214.81a.25.25,0,0,1-.24-.18l-3.31-11.76a.25.25,0,1,1,.48-.13l3.31,11.75a.26.26,0,0,1-.18.31Z" style="fill:#fff"></path><path d="M362.56,212.84a.25.25,0,0,1-.23-.16l-4.22-10.29a.26.26,0,0,1,.13-.33.25.25,0,0,1,.33.14l4.22,10.29a.25.25,0,0,1-.14.33Z" style="fill:#fff"></path><path d="M356.66,230.66a.25.25,0,0,1-.2-.1l-9.34-12.47a.25.25,0,1,1,.4-.3l9.34,12.47a.25.25,0,0,1-.05.35A.27.27,0,0,1,356.66,230.66Z" style="fill:#fff"></path><path d="M383.13,213.09A.23.23,0,0,1,383,213l-5.44-5.56a.24.24,0,0,1,0-.35.25.25,0,0,1,.36,0l5.43,5.57a.25.25,0,0,1-.18.42Z" style="fill:#fff"></path><path d="M373.7,208.93a.25.25,0,0,1-.2-.1l-5.63-7.45a.25.25,0,1,1,.4-.3l5.63,7.45a.25.25,0,0,1,0,.35A.27.27,0,0,1,373.7,208.93Z" style="fill:#fff"></path><path d="M383.34,230.39h-.09l-16.91-6.22a.25.25,0,0,1-.15-.32.26.26,0,0,1,.32-.15l16.91,6.22a.25.25,0,0,1-.08.48Z" style="fill:#fff"></path><path d="M336.79,204.89h-.05a.26.26,0,0,1-.2-.29l1.66-8.45a.24.24,0,0,1,.29-.19.24.24,0,0,1,.2.29L337,204.68A.27.27,0,0,1,336.79,204.89Z" style="fill:#fff"></path><path d="M403,215.27H403l-7.35-2.17a.26.26,0,0,1-.17-.31.25.25,0,0,1,.32-.17l7.35,2.17a.25.25,0,0,1,.17.31A.26.26,0,0,1,403,215.27Z" style="fill:#fff"></path></g><g id="freepik--Pumpkins--inject-155"><path d="M392,392.31c-2.23-4.29-3.86-4.2-5.3-4.95s.51-3.72,3.25-3,4.2,6.22,3.63,7.93C392,393.32,392,392.31,392,392.31Z" style="fill:#fff"></path><path d="M392.89,421h0a52,52,0,0,1-7.1-.36c-3.16-.43-7.52-1.43-9.48-3.32-6-5.62-6-16.29,0-21.91,2-1.89,6.32-2.89,9.48-3.32a51.59,51.59,0,0,1,7.1-.35h0a51.59,51.59,0,0,1,7.1.35c3.16.43,7.52,1.43,9.47,3.32,6.05,5.62,6.05,16.29,0,21.91-1.95,1.89-6.31,2.89-9.47,3.32A52,52,0,0,1,392.89,421Z" style="fill:#FC4C9A"></path><path d="M392.89,421h0c-3.17,0-10.43-2-13.52-5.67a15.87,15.87,0,0,1,0-17.93c3.09-3.66,10.35-5.67,13.52-5.66h0c3.17,0,10.43,2,13.52,5.66a15.87,15.87,0,0,1,0,17.93C403.32,419,396.06,421,392.89,421Z" style="opacity:0.1"></path><path d="M392.89,421h0a8,8,0,0,1-7.52-6.46,72.09,72.09,0,0,1,0-16.35,8,8,0,0,1,7.52-6.45h0a8,8,0,0,1,7.52,6.45,73.27,73.27,0,0,1,0,16.35A8,8,0,0,1,392.89,421Z" style="opacity:0.1"></path><polygon points="392.89 405.39 394.86 408.4 390.92 408.4 392.89 405.39" style="fill:#263238"></polygon><polygon points="379.67 409.67 380.5 411.96 384.28 411.86 386.38 415 389.93 413.7 392.89 416.05 395.85 413.7 399.4 415 401.5 411.86 405.28 411.96 406.11 409.68 403.77 408.79 401.53 411.5 398.41 409.86 395.78 412.2 392.89 410.18 390 412.2 387.37 409.86 384.25 411.5 382 408.79 379.67 409.67" style="fill:#263238"></polygon><path d="M395.85,402.91l10.26-3.23S405,406.87,395.85,402.91Z" style="fill:#263238"></path><path d="M389.92,402.91l-10.25-3.23S380.78,406.87,389.92,402.91Z" style="fill:#263238"></path><path d="M94.18,394.1c-.82-4.07-1.8-4.11-2.57-4.9s.74-3.33,2.28-2.45,1.76,6,1.22,7.47C94.08,395,94.18,394.1,94.18,394.1Z" style="fill:#fff"></path><path d="M95.7,394.54c1.66-2.45,2.47-2.23,3.29-2.55s.2-2.36-1.27-2.18-2.89,3.45-2.81,4.57C95.55,395.16,95.7,394.54,95.7,394.54Z" style="fill:#fff"></path><path d="M95.38,419.9h0a45.09,45.09,0,0,1-6.5-.32c-2.88-.39-6.87-1.31-8.65-3-5.53-5.14-5.53-14.9,0-20,1.78-1.72,5.77-2.64,8.65-3a46.62,46.62,0,0,1,6.5-.32h0a46.55,46.55,0,0,1,6.49.32c2.88.4,6.87,1.31,8.66,3,5.53,5.14,5.53,14.9,0,20-1.79,1.72-5.77,2.64-8.66,3A46.55,46.55,0,0,1,95.38,419.9Z" style="fill:#FC4C9A"></path><path d="M95.38,419.9h0c-2.9,0-9.54-1.83-12.36-5.17a14.51,14.51,0,0,1,0-16.39c2.82-3.35,9.46-5.19,12.36-5.18h0c2.89,0,9.53,1.83,12.36,5.18a14.51,14.51,0,0,1,0,16.39C104.91,418.07,98.27,419.91,95.38,419.9Z" style="opacity:0.1"></path><path d="M95.38,419.9h0a7.28,7.28,0,0,1-6.87-5.9,65.48,65.48,0,0,1,0-14.94,7.28,7.28,0,0,1,6.87-5.9h0a7.29,7.29,0,0,1,6.87,5.9,66.64,66.64,0,0,1,0,14.94A7.29,7.29,0,0,1,95.38,419.9Z" style="opacity:0.1"></path><polygon points="107.96 412.77 107.17 410.6 103.57 410.69 101.58 407.71 98.2 408.94 95.38 406.71 92.57 408.94 89.19 407.71 87.19 410.69 83.6 410.6 82.81 412.77 85.03 413.61 87.17 411.04 90.13 412.6 92.64 410.37 95.38 412.29 98.13 410.37 100.63 412.6 103.6 411.04 105.74 413.61 107.96 412.77" style="fill:#263238"></polygon><path d="M98.09,403.44l9.37-4.27S106.44,408.67,98.09,403.44Z" style="fill:#263238"></path><path d="M92.67,403.44l-9.38-4.27S84.31,408.67,92.67,403.44Z" style="fill:#263238"></path></g><g id="freepik--Bats--inject-155"><path d="M247.28,266.8a29.33,29.33,0,0,1-7.68,4.68l-.79-.63-.16,1-.45.18-.45.17-.82-.66-.15,1a29.73,29.73,0,0,1-8.83,1.77s2.71.36,3.22,2.58c2.52-1.17,4.66-.56,5.73,1.05a8.63,8.63,0,0,1,1.54-1.78c.53.71,1.19,1.08,1.72.87s.77-.93.67-1.81a8.34,8.34,0,0,1,2.34.27c-.3-1.92.85-3.81,3.5-4.66C245.53,268.9,247.28,266.8,247.28,266.8Z" style="fill:#263238"></path><path d="M153.73,303.6a31.89,31.89,0,0,1-9.74-.24l-.35-1-.75.85-.52-.1-.51-.11-.36-1.07-.73.82a32.18,32.18,0,0,1-9.07-3.56s2.26,1.92,1.42,4.24c3,.41,4.56,2.21,4.6,4.31a9.48,9.48,0,0,1,2.44-.72c.06.95.46,1.68,1.06,1.8s1.24-.39,1.67-1.25a9.62,9.62,0,0,1,2,1.61c.85-1.92,3-3,5.91-2.18C150.9,304.49,153.73,303.6,153.73,303.6Z" style="fill:#263238"></path><path d="M191.08,125.87a31.89,31.89,0,0,1-9.63-1.5l-.21-1.07-.85.74-.5-.16-.5-.18-.22-1.11-.82.72a31.76,31.76,0,0,1-8.53-4.7s2,2.19.85,4.39c2.9.79,4.24,2.78,4,4.87a9.19,9.19,0,0,1,2.51-.4c-.06.95.24,1.73.82,1.92s1.28-.23,1.81-1a8.93,8.93,0,0,1,1.75,1.85c1.09-1.79,3.37-2.55,6.15-1.4C188.16,126.39,191.08,125.87,191.08,125.87Z" style="fill:#263238"></path><path d="M290.74,123.77a50.2,50.2,0,0,1-14.4,5.36l-1.13-1.32-.6,1.69-.81.15-.82.15-1.16-1.37-.58,1.64a50.53,50.53,0,0,1-15.37.1s4.43,1.48,4.56,5.38c4.61-1.15,8,.56,9.27,3.61a14.57,14.57,0,0,1,3.16-2.48c.65,1.36,1.65,2.19,2.6,2s1.59-1.31,1.71-2.81a14.46,14.46,0,0,1,3.83,1.2c.12-3.31,2.67-6.11,7.39-6.67C287.13,126.73,290.74,123.77,290.74,123.77Z" style="fill:#263238"></path><path d="M304.89,230.61a40.16,40.16,0,0,1-12.19-.73l-.4-1.32-1,1-.64-.14-.64-.16-.41-1.36-.95,1a39.91,39.91,0,0,1-11.2-4.86s2.74,2.5,1.59,5.38c3.72.64,5.62,3,5.58,5.59a11.58,11.58,0,0,1,3.09-.78c0,1.19.49,2.12,1.24,2.3s1.58-.45,2.15-1.5a11.65,11.65,0,0,1,2.4,2.1c1.15-2.36,3.9-3.58,7.5-2.47C301.31,231.6,304.89,230.61,304.89,230.61Z" style="fill:#263238"></path></g><g id="freepik--Garlands--inject-155"><path d="M338.05,328.89c-49.22,0-83.88-14-84.24-14.11a.52.52,0,1,1,.4-1c.38.15,38.23,15.39,91,13.93,56.38-1.55,79.66-13.79,79.89-13.91a.53.53,0,0,1,.5.93c-.23.12-23.73,12.47-80.36,14Q341.57,328.9,338.05,328.89Z" style="fill:#263238"></path><polygon points="263.48 316.45 273.94 319.2 263.13 335.86 263.48 316.45" style="fill:#263238"></polygon><polygon points="290.44 323.06 301.09 324.94 291.69 342.43 290.44 323.06" style="fill:#fff"></polygon><polygon points="325.98 326.83 336.79 327.16 329.99 345.82 325.98 326.83" style="fill:#263238"></polygon><polygon points="397.86 321.04 408.5 319.08 405.79 338.75 397.86 321.04" style="fill:#263238"></polygon><polygon points="355.93 326.33 366.7 325.33 362.23 344.68 355.93 326.33" style="fill:#fff"></polygon></g><g id="freepik--Skulls--inject-155"><path d="M207.77,340c-.55-4.1-4.78-6.91-9.45-6.28s-8,4.47-7.44,8.57a7,7,0,0,0,3.28,5,1.07,1.07,0,0,0-.07.19c-.16.62.39,1.27,1.28,1.57l0,.33a2.4,2.4,0,0,0,2.06,2l.08.54a.36.36,0,0,0,.41.31l.77-.1a.36.36,0,0,0,.31-.41l-.06-.46.89-.12.07.46a.35.35,0,0,0,.4.31l.78-.1a.36.36,0,0,0,.31-.41l-.06-.46.89-.12.06.46a.36.36,0,0,0,.41.31l.77-.11a.37.37,0,0,0,.32-.4l-.08-.55a2.38,2.38,0,0,0,1.45-2.51l0-.34c.77-.52,1.13-1.29.81-1.85a.87.87,0,0,0-.09-.11A7,7,0,0,0,207.77,340Z" style="fill:#263238"></path><path d="M197.66,342.89c-.16.72-1.11,1.12-2.12.9s-1.71-1-1.56-1.7,1.11-1.12,2.12-.9S197.81,342.17,197.66,342.89Z" style="fill:#fff"></path><path d="M204.64,340.65c.35.65-.12,1.57-1,2.05a1.68,1.68,0,0,1-2.28-.3c-.35-.65.12-1.57,1-2.06A1.68,1.68,0,0,1,204.64,340.65Z" style="fill:#fff"></path><path d="M171.88,364.47c.55,4.1,4.78,6.92,9.45,6.29s8-4.47,7.44-8.57a7.07,7.07,0,0,0-3.28-5,.67.67,0,0,0,.07-.18c.16-.63-.39-1.28-1.28-1.57l0-.34a2.38,2.38,0,0,0-2.06-2l-.08-.55a.36.36,0,0,0-.41-.31l-.77.11a.35.35,0,0,0-.31.4l.06.46-.89.12-.07-.45a.37.37,0,0,0-.4-.32l-.78.11a.36.36,0,0,0-.31.41l.06.46-.89.12-.06-.46a.36.36,0,0,0-.41-.31l-.77.1a.38.38,0,0,0-.32.41l.08.55a2.38,2.38,0,0,0-1.45,2.51l0,.33c-.77.52-1.13,1.29-.81,1.86a.87.87,0,0,0,.09.11A7,7,0,0,0,171.88,364.47Z" style="fill:#263238"></path><path d="M182,361.56c.16-.71,1.11-1.12,2.12-.89s1.71,1,1.56,1.7-1.11,1.12-2.12.89S181.84,362.28,182,361.56Z" style="fill:#fff"></path><path d="M175,363.81c-.35-.65.12-1.57,1-2.05a1.67,1.67,0,0,1,2.28.3c.35.65-.12,1.57-1,2.05A1.68,1.68,0,0,1,175,363.81Z" style="fill:#fff"></path></g></svg>